<mxfile host="app.diagrams.net" modified="2023-05-22T04:31:39.399Z" agent="Mozilla/5.0 (X11; Linux x86_64; rv:109.0) Gecko/20100101 Firefox/113.0" version="21.3.2" etag="QYpvm6McSyAr8Z7_OU6q" type="github">
  <diagram name="Page-1" id="BbIjCt-2ZnQf5PzIZmZE">
    <mxGraphModel>
      <root>
        <mxCell id="0" />
        <mxCell id="1" parent="0" />
      </root>
    </mxGraphModel>
  </diagram>
</mxfile>
